<svg width="71" height="69" viewBox="0 0 71 69" fill="none" xmlns="http://www.w3.org/2000/svg">
<path d="M54.551 50.7029L69.5713 65.4044C70.3322 66.1492 70.3322 67.3568 69.5713 68.1016C68.8103 68.8464 67.5765 68.8464 66.8155 68.1016L51.7953 53.4001C46.2989 58.1494 39.0784 61.0313 31.1701 61.0313C13.9513 61.0313 -0.00732422 47.369 -0.00732422 30.5156C-0.00732422 13.6623 13.9513 0 31.1701 0C48.389 0 62.3476 13.6623 62.3476 30.5156C62.3476 38.256 59.4033 45.3232 54.551 50.7029ZM31.1701 57.2168C46.2366 57.2168 58.4504 45.2623 58.4504 30.5156C58.4504 15.769 46.2366 3.81446 31.1701 3.81446C16.1037 3.81446 3.88986 15.769 3.88986 30.5156C3.88986 45.2623 16.1037 57.2168 31.1701 57.2168Z" fill="black"/>
</svg>
